<?xml version="1.0" standalone="no"?>
<!DOCTYPE svg PUBLIC "-//W3C//DTD SVG 20010904//EN"
 "http://www.w3.org/TR/2001/REC-SVG-20010904/DTD/svg10.dtd">
<svg version="1.0" xmlns="http://www.w3.org/2000/svg"
 width="256.000000pt" height="256.000000pt" viewBox="0 0 256.000000 256.000000"
 preserveAspectRatio="xMidYMid meet">

<g transform="translate(0.000000,256.000000) scale(0.100000,-0.100000)"
fill="#000000" stroke="none">
<path d="M223 2541 c-72 -24 -127 -65 -163 -120 -63 -94 -61 -48 -58 -1162 l3
-1014 26 -56 c33 -71 87 -125 158 -158 l56 -26 1035 0 1035 0 56 26 c71 33
125 87 158 158 l26 56 0 1035 0 1035 -26 56 c-33 71 -87 125 -158 158 l-56 26
-1020 2 c-961 2 -1023 1 -1072 -16z m682 -508 c-33 -631 -193 -1137 -493
-1556 l-55 -77 -59 0 -58 0 45 55 c308 379 498 942 531 1573 l7 132 44 0 45 0
-7 -127z m112 -30 c-23 -554 -169 -1106 -395 -1498 l-57 -100 -53 -3 c-28 -2
-52 -1 -52 1 0 2 23 42 51 88 245 405 395 947 416 1507 l6 162 45 0 45 0 -6
-157z m110 -35 c-17 -533 -135 -1061 -336 -1501 l-31 -67 -50 0 -50 0 28 58
c190 379 332 977 348 1462 3 85 7 174 10 198 5 42 5 42 46 42 l41 0 -6 -192z
m119 20 c-22 -543 -93 -972 -238 -1426 l-52 -162 -49 0 c-43 0 -48 2 -42 18
25 60 81 238 116 362 101 368 158 758 175 1198 l7 182 45 0 45 0 -7 -172z
m118 -10 c17 -451 79 -859 186 -1234 34 -121 82 -271 105 -327 6 -15 1 -17
-42 -17 l-49 0 -52 162 c-107 337 -168 630 -206 988 -16 148 -36 449 -36 553
l0 57 44 0 43 0 7 -182z m110 151 c3 -17 6 -77 6 -133 0 -218 47 -581 110
-841 58 -241 159 -534 242 -698 l29 -58 -51 3 -51 3 -45 98 c-194 430 -323
1041 -324 1535 l0 122 39 0 c35 0 39 -3 45 -31z m116 -58 c0 -530 174 -1186
418 -1579 29 -46 52 -86 52 -88 0 -3 -23 -4 -52 -2 l-52 3 -48 80 c-94 159
-210 442 -273 666 -78 276 -135 670 -135 931 l0 78 45 0 45 0 0 -89z m114 -43
c33 -632 223 -1194 531 -1573 l45 -55 -58 0 -59 0 -56 78 c-296 411 -459 927
-492 1555 l-7 127 45 0 44 0 7 -132z"/>
</g>
</svg>
